<?xml version="1.0" encoding="UTF-8"?>
<svg id="Layer_1" data-name="Layer 1" xmlns="http://www.w3.org/2000/svg" xmlns:xlink="http://www.w3.org/1999/xlink" viewBox="0 0 644.21 161.89">
  <defs>
    <style>
      .cls-1 {
        fill: url(#linear-gradient);
      }

      .cls-1, .cls-2, .cls-3, .cls-4, .cls-5, .cls-6, .cls-7, .cls-8, .cls-9, .cls-10 {
        stroke-width: 0px;
      }

      .cls-2 {
        fill: url(#linear-gradient-6);
      }

      .cls-3 {
        fill: url(#linear-gradient-5);
      }

      .cls-4 {
        fill: #fff;
      }

      .cls-5 {
        fill: url(#linear-gradient-2);
      }

      .cls-6 {
        fill: url(#linear-gradient-7);
      }

      .cls-7 {
        fill: url(#linear-gradient-3);
      }

      .cls-8 {
        fill: url(#linear-gradient-9);
      }

      .cls-9 {
        fill: url(#linear-gradient-8);
      }

      .cls-10 {
        fill: url(#linear-gradient-4);
      }
    </style>
    <linearGradient id="linear-gradient" x1="532.29" y1="47.2" x2="630.85" y2="13.86" gradientUnits="userSpaceOnUse">
      <stop offset="0" stop-color="#e1aa1c"/>
      <stop offset="1" stop-color="#e84218"/>
    </linearGradient>
    <linearGradient id="linear-gradient-2" x1="374.86" y1="63.98" x2="883.82" y2="63.98" xlink:href="#linear-gradient"/>
    <linearGradient id="linear-gradient-3" x1="374.87" y1="46.94" x2="726.76" y2="46.94" xlink:href="#linear-gradient"/>
    <linearGradient id="linear-gradient-4" x1="541.25" y1="46.94" x2="541.3" y2="46.96" xlink:href="#linear-gradient"/>
    <linearGradient id="linear-gradient-5" x1="539.61" y1="73.99" x2="637.63" y2="116.23" xlink:href="#linear-gradient"/>
    <linearGradient id="linear-gradient-6" x1="553.45" y1="117.13" x2="602.22" y2="166.7" xlink:href="#linear-gradient"/>
    <linearGradient id="linear-gradient-7" x1="509.6" y1="50.98" x2="511.46" y2="146.04" xlink:href="#linear-gradient"/>
    <linearGradient id="linear-gradient-8" x1="510.01" y1="54.09" x2="510.01" y2="146.6" xlink:href="#linear-gradient"/>
    <linearGradient id="linear-gradient-9" x1="510.01" y1="13.31" x2="510.01" y2="180.96" xlink:href="#linear-gradient"/>
  </defs>
  <g>
    <g>
      <path class="cls-1" d="m631.06,43.17c-12.18-8.29-26.88-13.14-42.73-13.14-.62,0-1.23,0-1.85.03-1.44.03-2.87.12-4.28.23-.31.03-.63.05-.94.09-.51.05-1.03.11-1.54.17-2.58.3-5.09.74-7.57,1.31-1.42.32-2.81.69-4.19,1.1-.65.18-1.29.38-1.93.59,0,0-.02,0-.04,0-.62.2-1.24.41-1.84.63-.15.06-.31.11-.46.17-.49.16-.96.35-1.45.53-.41.15-.8.31-1.21.48-.78.31-1.56.64-2.34.98-6.19,2.76-11.97,6.33-17.25,10.53h0c.05.06,0,.05-.03.03h0s-.08-.02-.08,0c0,0,.02,0,.03.03-.03.02-.04.04-.07.04,0,0,0,0,0,0-2.12,1.49-4.12,3.12-5.96,4.91V17.39c9.96-4.8,21.12-7.48,32.91-7.48,26.12,0,49.16,13.18,62.83,33.25Z"/>
      <g>
        <path class="cls-5" d="m643.51,92.38c0,1.87-.09,3.72-.25,5.55.62-3.92.95-7.94.95-12.04,0-15.84-4.85-30.55-13.15-42.73-12.18-8.3-26.89-13.15-42.73-13.15-6.37,0-12.52.84-18.4,2.38,3.99-.82,8.12-1.25,12.35-1.25,33.81,0,61.22,27.41,61.22,61.22Z"/>
        <path class="cls-7" d="m541.24,46.95s0,0,0,0c.01-.01.03-.02.04-.04-.01.01-.03.02-.04.03Z"/>
        <path class="cls-10" d="m541.28,47s-.02,0-.04-.04c.02-.02.03-.03.05-.04h0s0,.05,0,.07c0,0,0,0,0,0Z"/>
        <path class="cls-3" d="m643.51,92.38c0,1.87-.09,3.71-.25,5.55-2.24,14.09-8.36,26.89-17.22,37.27-.52.53-1.05,1.05-1.59,1.56-.54.52-1.09,1.02-1.65,1.51-.65.57-1.3,1.13-1.98,1.67-.48.4-.97.78-1.48,1.17-.65.49-1.3.97-1.97,1.44-.56.39-1.12.77-1.69,1.14-.72.47-1.47.94-2.21,1.37-.54.33-1.09.64-1.64.95-1.31.72-2.66,1.41-4.02,2.04-.93.42-1.84.82-2.78,1.2-.41.16-.81.32-1.22.47-.35.13-.69.25-1.03.37-.2.08-.41.14-.61.21-.96.34-1.93.65-2.9.92-.68.19-1.35.38-2.04.55-.54.14-1.09.27-1.64.39-.02,0-.03,0-.05,0-.23.06-.48.11-.71.15-.04,0-.07.02-.11.02-.42.1-.85.18-1.28.26l-.17.03c-.31.06-.62.11-.93.15-.8.14-1.62.26-2.44.36-.42.06-.86.11-1.29.14-.64.07-1.28.13-1.94.17-.4.03-.79.05-1.19.07-.45.03-.92.05-1.37.06-.61.02-1.22.03-1.82.03-.53,0-1.05,0-1.58-.02-.48,0-.96-.03-1.44-.06-.36,0-.7-.03-1.06-.06-3.59-.23-7.09-.78-10.48-1.61-.26-.06-.52-.13-.77-.19-1.46-.38-2.89-.8-4.3-1.28-.55-.18-1.09-.37-1.62-.57-.36-.14-.7-.26-1.05-.41-.16-.06-.33-.13-.49-.19-.35-.14-.69-.28-1.04-.42-.91-.39-1.8-.79-2.69-1.22-.47-.23-.95-.46-1.42-.7-.85-.44-1.69-.9-2.52-1.37-.42-.25-.85-.5-1.26-.75-.42-.25-.84-.52-1.25-.78-3.3-2.11-6.39-4.54-9.21-7.24-.26-.24-.51-.48-.76-.74-1.11-1.08-2.17-2.21-3.18-3.38-.28-.31-.55-.64-.82-.96v-11.76c3.26,3.16,6.99,5.85,11.05,7.98,6.54,3.41,13.97,5.35,21.86,5.35,26.13,0,47.32-21.19,47.32-47.32,0-7.89-1.93-15.33-5.35-21.86-7.9-15.13-23.73-25.45-41.97-25.45-9.95,0-19.17,3.07-26.79,8.31,0,0-.02,0-.03.02h0s-.03.03-.05.04c0-.02-.02-.02-.03-.03s0,0-.02,0c5.29-4.22,11.13-7.8,17.39-10.56.77-.35,1.55-.68,2.34-.98.41-.17.8-.33,1.21-.48.47-.18.96-.37,1.45-.53.15-.07.31-.12.46-.17.61-.21,1.23-.42,1.84-.63.02,0,.03,0,.04,0,.64-.2,1.28-.41,1.93-.59.66-.19,1.31-.38,1.98-.55,3.99-.82,8.12-1.25,12.35-1.25,33.81,0,61.22,27.41,61.22,61.23Z"/>
      </g>
      <path class="cls-2" d="m626.04,135.21c-13.93,16.33-34.66,26.68-57.81,26.68-11.79,0-22.95-2.69-32.91-7.5v-22.73c.22.27.44.53.67.79.05.06.1.11.15.16,1.01,1.17,2.07,2.3,3.18,3.38.25.26.5.5.76.74,2.83,2.69,5.91,5.12,9.21,7.24.41.27.83.53,1.25.78.41.26.84.51,1.26.75.83.47,1.67.94,2.52,1.37.47.24.95.47,1.42.7.89.42,1.79.83,2.69,1.22.35.14.69.29,1.04.42.16.07.33.14.49.19.35.14.69.27,1.05.41.53.2,1.07.39,1.62.57,1.41.48,2.85.91,4.3,1.28.26.07.51.14.77.19,3.39.83,6.89,1.38,10.48,1.61.36.03.7.05,1.06.06.47.03.96.05,1.44.06.52,0,1.05.02,1.58.02.61,0,1.23,0,1.82-.03.46,0,.92-.03,1.37-.06.4-.02.79-.04,1.19-.07.66-.05,1.3-.11,1.94-.17.43-.04.87-.09,1.29-.14.82-.1,1.64-.21,2.44-.36.31-.04.62-.1.93-.15l.17-.03c.43-.08.86-.16,1.28-.26.04,0,.07,0,.11-.02.24-.04.47-.1.71-.15.02,0,.03,0,.05,0,.55-.12,1.1-.25,1.64-.39.69-.17,1.36-.36,2.04-.55.97-.27,1.94-.58,2.9-.92h.02c.19-.07.4-.14.59-.21.35-.12.69-.24,1.03-.37.41-.15.81-.31,1.22-.47.94-.38,1.85-.77,2.78-1.2,1.36-.63,2.71-1.31,4.02-2.04.55-.31,1.1-.62,1.64-.95.74-.43,1.49-.9,2.21-1.37.57-.37,1.13-.75,1.69-1.14.67-.46,1.32-.95,1.97-1.44.5-.39.99-.77,1.48-1.17.68-.54,1.33-1.1,1.98-1.67.56-.49,1.11-.99,1.65-1.51.54-.51,1.07-1.03,1.59-1.56Z"/>
    </g>
    <path class="cls-6" d="m523.55,49.69v61.54h-25.12c-1.3-5.55-1.94-11.27-1.94-17.02v-44.53c3.95,2.42,8.57,3.8,13.54,3.8s9.59-1.39,13.53-3.79Z"/>
    <path class="cls-9" d="m523.55,75.19v75.78c-4.4-3.58-8.38-7.64-11.89-12.11-.62-.78-1.2-1.57-1.8-2.37-.42-.59-.84-1.18-1.25-1.78-4.86-7.15-8.26-15.13-10.19-23.48-1.3-5.55-1.94-11.27-1.94-17.02v-19.02h27.06Z"/>
    <circle class="cls-8" cx="510.01" cy="29.39" r="14.5"/>
  </g>
  <g>
    <rect class="cls-4" x="319.3" width="25.32" height="146.71"/>
    <path class="cls-4" d="m281.61,44.07c-9.53-7.16-21.37-11.4-34.21-11.4-18.89,0-35.63,9.19-46,23.33,1.94,2.65,3.65,5.47,5.12,8.44-1.47-2.97-3.18-5.79-5.12-8.44-6.93,9.44-11.02,21.09-11.02,33.69,0,10.95-5.03,20.73-12.91,27.14-6.02,4.9-13.7,7.84-22.07,7.84-19.32,0-34.99-15.66-34.99-34.98s15.66-34.99,34.99-34.99c8.37,0,16.05,2.94,22.07,7.84,2.72-7,6.46-13.49,11.04-19.28-9.33-6.67-20.76-10.59-33.11-10.59-31.5,0-57.02,25.53-57.02,57.02s25.53,57.02,57.02,57.02c12.35,0,23.77-3.92,33.11-10.59,4.95-3.53,9.31-7.84,12.9-12.74,1.48-2.01,2.81-4.13,4.02-6.33-1.21,2.2-2.54,4.32-4.02,6.33,10.37,14.14,27.11,23.33,46,23.33,12.84,0,24.68-4.24,34.21-11.4v11.4h22.81v-57.02c0-18.66-8.96-35.22-22.81-45.62Zm0,52.95c-3.37,15.8-17.41,27.66-34.21,27.66-19.33,0-34.99-15.67-34.99-34.99,0,1.58-.06,3.14-.19,4.68.13-1.54.19-3.1.19-4.68,0-3.79-.38-7.49-1.08-11.08.71,3.58,1.08,7.28,1.08,11.07,0-19.32,15.66-34.99,34.99-34.99,16.81,0,30.84,11.86,34.21,27.66.5,2.36.77,4.81.77,7.33s-.26,4.96-.77,7.33Z"/>
    <path class="cls-4" d="m80.02,90.51c-3.09-2.64-6.86-4.89-11.34-6.78-4.48-1.88-9.58-3.58-15.31-5.09-4.86-1.3-8.88-2.42-12.06-3.39-3.18-.97-5.7-1.99-7.53-3.07-1.84-1.08-3.11-2.28-3.81-3.63-.71-1.34-1.06-2.93-1.06-4.76v-.33c0-2.8,1.22-5.14,3.64-7.03,2.42-1.88,6.06-2.83,10.9-2.83s9.69,1.01,14.54,2.99c4.84,2,9.8,4.72,14.87,8.16l12.92-18.74c-5.82-4.63-12.19-8.18-19.14-10.67-6.94-2.47-14.57-3.71-22.85-3.71-5.81,0-11.14.81-15.96,2.42-4.83,1.61-8.98,3.93-12.46,6.95-3.48,3.02-6.18,6.6-8.11,10.74-1.92,4.14-2.88,8.81-2.88,13.98v.32c0,5.6.89,10.28,2.67,14.05,1.78,3.77,4.29,6.92,7.54,9.45,3.24,2.53,7.18,4.66,11.82,6.37,4.65,1.73,9.82,3.29,15.55,4.68,4.74,1.19,8.61,2.32,11.58,3.39s5.29,2.16,6.97,3.24c1.67,1.08,2.8,2.23,3.39,3.47.59,1.23.9,2.65.9,4.28v.33c0,3.33-1.44,5.95-4.29,7.83-2.86,1.89-6.87,2.83-12.04,2.83-6.46,0-12.41-1.23-17.85-3.72-5.44-2.47-10.74-5.81-15.91-10.02L0,129.84c6.79,6.14,14.33,10.7,22.62,13.65,8.29,2.96,16.74,4.44,25.36,4.44,6.14,0,11.73-.78,16.78-2.35,5.03-1.56,9.38-3.82,13.02-6.78,3.63-2.96,6.46-6.62,8.5-10.99,2.04-4.36,3.05-9.34,3.05-14.94v-.33c0-4.96-.78-9.21-2.35-12.76-1.56-3.55-3.88-6.65-6.96-9.29Z"/>
    <path class="cls-4" d="m477.52,89.69c0-3.32-.28-6.59-.84-9.76-4.63-26.84-28.02-47.26-56.18-47.26-31.5,0-57.02,25.53-57.02,57.02s25.53,57.02,57.02,57.02c21.6,0,40.39-12.02,50.07-29.72-7.22-2.2-16.94-5.18-21.79-6.71-6.36,8.73-16.66,14.4-28.29,14.4-16.25,0-29.91-11.08-33.84-26.09h90.17c.45-2.9.69-5.87.69-8.9Zm-90.62-9.76c4.22-14.58,17.67-25.23,33.6-25.23s29.38,10.65,33.6,25.23h-67.21Z"/>
  </g>
</svg>